<svg version="1.1" xmlns="http://www.w3.org/2000/svg" style="display: block;" viewBox="0 0 1280 1592" width="320" height="398" preserveAspectRatio="none">
<path transform="translate(0,0)" fill="rgb(1,61,104)" d="M 854.996 1418.32 C 872.011 1416.82 890.454 1418.79 905.352 1427.7 C 917.32 1434.73 925.97 1446.27 929.369 1459.73 C 932.097 1470.78 932.092 1525.12 930.097 1536.79 C 929.037 1543.11 926.774 1549.17 923.43 1554.64 C 912.793 1571.77 896.158 1577.56 877.725 1581.71 C 860.662 1583.85 840.112 1580.81 825.57 1571.4 C 813.527 1563.73 805.103 1551.51 802.217 1537.53 C 799.829 1526.16 799.808 1473.03 802.029 1461.64 C 803.227 1455.36 805.696 1449.39 809.285 1444.09 C 820.514 1427.44 836.358 1421.92 854.996 1418.32 z M 844.581 1535.96 C 854.471 1541.74 859.033 1543.25 870.699 1542.81 C 875.661 1542.05 885.28 1538.96 887.175 1535.13 C 892.616 1524.12 891.33 1477.85 889.279 1467.61 L 889.086 1466.63 C 881.851 1459.3 876.774 1456.36 866.013 1456.18 C 864.791 1456.15 863.569 1456.2 862.354 1456.33 C 855.329 1457.66 850.079 1458.8 845.435 1465.02 C 839.092 1473.52 840.84 1521.23 842.726 1529.8 C 843.19 1531.9 843.81 1533.96 844.581 1535.96 z"/>
<path transform="translate(0,0)" fill="rgb(1,61,104)" d="M 593.138 1418.33 C 646.267 1413.41 674.122 1443.03 668.214 1492.74 C 666.51 1507.08 669.791 1523.22 666.97 1538.75 C 665.903 1544.86 663.602 1550.68 660.207 1555.87 C 649.209 1572.67 633.148 1577.93 614.699 1581.76 C 576.214 1586.49 535.175 1565.05 538.567 1521.82 C 540.055 1502.85 536.205 1479.65 540.156 1460.73 C 541.495 1454.07 544.214 1447.76 548.138 1442.22 C 559.034 1427.01 575.408 1421.15 593.138 1418.33 z M 606.359 1543.01 C 614.79 1541.95 619.577 1540.73 625.071 1533.73 C 626.063 1532.49 626.984 1531.19 627.831 1529.84 C 627.802 1503.52 638.459 1454.12 601.762 1456.33 C 596.937 1456.94 584.726 1458.91 582.752 1464.52 C 576.398 1482.55 578.924 1510.77 580.458 1529.73 C 581.342 1540.66 597.764 1542.71 606.359 1543.01 z"/>
<path transform="translate(0,0)" fill="rgb(1,61,104)" d="M 480.197 1501.57 C 479.143 1491 477.081 1428.75 480.726 1421.23 C 486.264 1418.18 510.934 1418.97 518.934 1418.74 L 519.069 1525.29 C 519.058 1541.48 518.359 1564.29 519.267 1580.04 C 505.502 1578.64 490.427 1580.02 478.388 1578.68 C 467.063 1562.53 445.011 1521.24 436.981 1503.57 C 434.435 1496.92 431.667 1490.93 428.716 1484.47 C 429.707 1490.21 431.093 1496.12 432.423 1501.8 C 437.295 1523.64 434.452 1556.38 435.471 1579.79 C 423.399 1579.21 405.971 1578.38 394.191 1579.97 C 393.552 1529.2 392.378 1470.96 393.864 1420.28 C 402.863 1419.11 422.008 1418.65 431.428 1419.09 C 445.8 1441.24 466.782 1479.9 476.996 1503.55 C 478.517 1508.51 480.634 1511.93 483.144 1516.43 L 480.197 1501.57 z"/>
<path transform="translate(0,0)" fill="rgb(1,61,104)" d="M 145.407 1419.44 C 177.449 1418.98 216.92 1420.81 248.003 1418.48 L 247.963 1460.04 C 231.111 1457.36 199.308 1460.31 180.18 1458.73 C 180.409 1466.47 180.549 1474.22 180.598 1481.97 C 196.447 1480.37 223.86 1482.37 241.997 1481.62 C 242.355 1493.54 242.236 1506.21 242.33 1518.19 C 229.258 1517.76 193.064 1517.39 181.01 1518.5 C 179.718 1521.36 180.22 1524.95 180.326 1528.23 C 180.663 1531.67 180.403 1537.52 180.345 1541.17 C 202.527 1539.94 225.113 1542.27 247.911 1539.84 L 248.067 1580.25 C 230.518 1578.71 206.311 1579.45 188.215 1579.24 C 175.907 1579.1 149.84 1578.46 138.606 1579.92 C 137.169 1548.26 138.64 1512.58 138.272 1480.64 C 138.135 1468.67 137.818 1432.8 139.233 1422.12 C 141.247 1419.5 141.448 1420.19 145.407 1419.44 z"/>
<path transform="translate(0,0)" fill="rgb(1,61,104)" d="M 999.834 1418.26 C 1021.48 1416.52 1042.72 1421.19 1056.45 1439.54 C 1058.67 1442.52 1062.89 1447.99 1062.33 1451.74 C 1058.09 1457.11 1037.26 1465.32 1029.86 1468.59 C 1018.23 1454.59 1004.36 1447.47 991.582 1463.9 C 983.985 1473.67 986.426 1523.34 989.071 1535.01 C 1008.57 1550.76 1026.17 1545.82 1033.29 1521.65 L 1007.15 1521.58 C 1006.93 1510.13 1006.97 1498.68 1007.28 1487.23 C 1020.51 1486.38 1034.91 1486.64 1048.25 1486.63 C 1056.09 1486.71 1062.29 1486.63 1070.1 1486.12 C 1070.78 1528.92 1076 1571.68 1021.96 1581.2 C 980.084 1588.58 945.232 1563.62 946.821 1520.33 C 948.632 1470.96 935.836 1429.2 999.834 1418.26 z"/>
<path transform="translate(0,0)" fill="rgb(1,61,104)" d="M 315.392 1418.25 C 346.331 1415.63 367.513 1426.58 380.722 1454.88 C 371.128 1460.31 359.277 1464.68 348.925 1468.81 C 320.712 1444.1 299.551 1456.98 302.78 1492.76 C 304.013 1506.43 298.255 1533.5 312.497 1540.56 C 326.11 1547.29 338.161 1539.93 346.542 1529.59 C 356.382 1533.27 363.256 1536.43 372.558 1541.2 L 381.579 1545.29 C 379.949 1548.3 377.997 1551.93 376.112 1554.78 C 366.863 1568.59 352.449 1578.1 336.114 1581.17 C 318.141 1584.65 299.236 1580.34 284.239 1569.92 C 260.923 1553.73 262.205 1529.53 262.701 1504.35 C 262.971 1490.68 261.552 1475.22 264.039 1461.97 C 265.322 1454.84 268.087 1448.05 272.156 1442.06 C 282.652 1426.85 298.148 1421.51 315.392 1418.25 z"/>
<path transform="translate(0,0)" fill="rgb(1,61,104)" d="M 689 1419.23 C 702.558 1419.28 716.116 1419.12 729.67 1418.76 C 728.981 1430.58 729.506 1447.8 729.517 1459.86 L 729.559 1538.63 C 747.991 1536.96 771.47 1539.95 792.123 1537.76 L 792.011 1578.74 C 788.594 1580.64 701.799 1578.46 688.308 1579.79 L 688.031 1473.59 C 688.017 1463.46 687.395 1428.13 689 1419.23 z"/>
<path transform="translate(0,0)" fill="rgb(1,61,104)" d="M 1087.54 1420.02 C 1100.98 1420.08 1114.43 1420 1127.87 1419.76 L 1128.07 1527.52 C 1128.07 1538.58 1128.77 1570.86 1127.41 1579.86 C 1117.11 1578.81 1097.3 1579.03 1086.92 1579.66 C 1086.39 1537.68 1087.17 1495.7 1086.62 1453.71 C 1086.47 1442.96 1086.35 1430.62 1087.54 1420.02 z"/>
<path transform="translate(0,0)" fill="rgb(1,61,104)" d="M 553.222 1285.16 C 574.13 1285.96 581.688 1284.49 602.096 1289.65 C 610.129 1295.85 615.321 1302.39 615.879 1313.19 C 616.962 1334.15 620.972 1363.1 594.567 1369.74 C 581.276 1372.52 567.469 1370.45 553.372 1372.28 C 552.199 1345.22 552.786 1312.35 553.222 1285.16 z M 571.041 1352.66 C 578.664 1352.19 587.888 1352.17 594.779 1349.48 C 598.559 1342.99 599.905 1313.08 594.724 1307.83 C 587.056 1304.31 579.332 1305.58 571.104 1304.54 C 571.092 1318.76 571.786 1338.99 571.041 1352.66 z"/>
<path transform="translate(0,0)" fill="rgb(1,61,104)" d="M 458.691 1285.01 C 464.838 1285.68 478.659 1285.79 484.976 1285.78 C 524.129 1285.74 520.893 1314.31 520.158 1343.66 C 519.903 1353.85 517.052 1358.15 509.613 1364.86 C 496.008 1373.71 474.653 1370.8 457.959 1372.07 C 458.403 1352 454.986 1301.73 458.691 1285.01 z M 476.29 1352.88 C 483.886 1352.22 491.95 1352.16 498.913 1349.51 C 502.961 1342.34 503.849 1313.92 498.469 1307.72 C 491.264 1304.21 484.175 1305.61 476.26 1304.41 L 476.29 1352.88 z"/>
<path transform="translate(0,0)" fill="rgb(1,61,104)" d="M 900.209 1284.93 C 906.88 1296.62 913.599 1308.2 920.419 1319.8 C 923.835 1325.61 926.9 1334.16 930.582 1340.3 C 932.603 1337.44 925.669 1291.96 932.808 1283.86 C 936.421 1282.05 941.649 1282.22 945.825 1282.04 C 949.456 1292.11 949.199 1358.29 947.801 1371.83 C 941.247 1371.52 936.088 1371.54 929.577 1371.69 C 922.804 1361.99 905.23 1328.98 900.112 1318.16 C 901.924 1331.98 901.645 1358.17 901.022 1372.1 C 894.118 1371.31 889.807 1371.58 882.947 1371.88 C 883.135 1344.44 881.467 1312.26 883.328 1285.46 C 887.905 1284.99 895.406 1285.04 900.209 1284.93 z"/>
<path transform="translate(0,0)" fill="rgb(1,61,104)" d="M 626.646 1288.05 C 627.287 1287.52 628.077 1286.88 629.014 1286.11 C 645.863 1284.62 667.686 1286.71 684.096 1284.89 L 684.082 1304.15 C 671.634 1304.08 657.533 1304.39 645.261 1303.92 C 645.711 1310.36 645.978 1313.77 645.357 1320.32 C 656.941 1320.06 668.526 1319.87 680.112 1319.75 L 680.171 1337.11 C 668.981 1337.26 656.154 1337.75 645.156 1336.65 C 645.532 1343.55 645.582 1346.54 644.834 1353.38 C 657.965 1353.01 671.103 1352.9 684.239 1353.05 C 684.752 1360.03 685.018 1365.01 684.905 1372.09 C 674.98 1371.05 637.406 1370.51 628.017 1371.92 C 625.17 1364.38 627.4 1302.44 626.646 1288.05 z"/>
<path transform="translate(0,0)" fill="rgb(1,61,104)" d="M 817.174 1284.79 C 824.105 1286.72 862.196 1285.42 871.866 1285.06 C 872.111 1291.05 872.039 1298.07 872.112 1304.13 L 834.297 1303.99 C 834.712 1310.48 834.558 1313.73 834.026 1320.23 C 845.67 1319.81 858.165 1320.06 869.877 1320.1 C 869.441 1326.51 869.409 1331.45 869.479 1337.81 C 859.139 1336.56 845.755 1337.69 834.36 1336.68 C 833.896 1339.19 834.152 1350.34 834.169 1353.51 C 845.054 1352.49 860.371 1353.3 872.098 1352.83 L 872.069 1372.01 C 863.429 1370.91 824.85 1370.78 816.254 1371.98 C 816.499 1349.5 815.789 1326.92 816.093 1304.42 C 816.183 1297.79 816.101 1291.35 817.174 1284.79 z"/>
<path transform="translate(0,0)" fill="rgb(1,61,104)" d="M 407.213 1285.2 L 422.1 1284.88 C 425.402 1291.82 429.942 1305.57 432.568 1313.02 L 452.873 1372.15 C 446.082 1371.59 440.327 1371.49 433.55 1371.42 C 430.967 1365.28 428.915 1353.59 423.248 1351.88 L 402.739 1351.99 C 400.187 1360.07 399.07 1364.18 394.877 1371.7 C 387.365 1371.09 384.33 1371.28 376.82 1372.17 C 378.983 1361.89 402.108 1291.04 407.213 1285.2 z M 417.23 1334.83 L 419.453 1335.12 C 421.843 1332.3 416.438 1314.24 414.939 1310.18 L 413.557 1309.42 C 411.863 1317.09 406.886 1329.52 409.287 1334.69 C 412.41 1336.12 413.342 1335.33 417.23 1334.83 z"/>
<path transform="translate(0,0)" fill="rgb(1,61,104)" d="M 83.177 1285.09 C 88.0798 1285.95 92.5563 1285.27 97.4938 1284.79 C 102.239 1294.9 107.548 1311.35 111.419 1322.34 C 116.987 1338.16 123.765 1356.1 127.964 1372.06 C 120.762 1371.25 116.479 1371.46 109.331 1371.71 C 105.228 1363.72 105.798 1355.72 98.9633 1352.07 L 78.7998 1351.75 C 76.1809 1359.2 74.0594 1364.55 70.8162 1371.74 C 63.0209 1371.45 59.7552 1371.52 51.9332 1372.37 C 54.4059 1362.44 78.1934 1290.41 83.177 1285.09 z M 91.2488 1335.08 L 94.9478 1334.89 C 97.1052 1331.29 92.3116 1311.52 90.0647 1309.59 C 88.1005 1315.59 82.0583 1329.61 84.8727 1335.06 C 87.5483 1335.84 88.4 1335.5 91.2488 1335.08 z"/>
<path transform="translate(0,0)" fill="rgb(1,61,104)" d="M 1084.17 1285.31 L 1097.62 1284.81 C 1106.24 1300.36 1122.91 1352.59 1128.31 1371.22 C 1125.34 1371.24 1115.81 1371.51 1113.45 1370.59 C 1103.66 1366.79 1106.72 1360.83 1103.37 1354.11 C 1100.05 1351.55 1101.01 1352.3 1096.25 1351.98 L 1079.35 1351.88 C 1076.69 1359.15 1074.89 1364.68 1070.99 1371.43 C 1063.96 1371.07 1059.31 1371.42 1052.36 1371.92 C 1058.15 1354.01 1064.11 1336.17 1070.23 1318.37 C 1072.81 1310.73 1078.54 1289.57 1084.17 1285.31 z M 1093.22 1334.75 L 1095.47 1335.13 C 1098.11 1332.08 1091.97 1311.12 1089.34 1309.49 C 1087.89 1316.88 1082.98 1330.38 1085.84 1334.99 C 1088.11 1336.1 1090.62 1335.23 1093.22 1334.75 z"/>
<path transform="translate(0,0)" fill="rgb(1,61,104)" d="M 260.206 1284.59 L 261.31 1284.63 C 265.498 1290.26 261.507 1321.58 263.094 1330.75 C 269.539 1368.01 232.144 1385.04 205.405 1362.04 C 194.394 1352.57 197.571 1322.67 197.98 1307.16 L 198.206 1285.74 C 205.198 1285.65 208.919 1285.19 215.707 1284.22 C 216.28 1302 213.833 1331.1 218.637 1347.75 C 219.804 1351.79 226.736 1353.45 230.836 1354.87 C 234.192 1353.61 239.176 1352.07 241.789 1349.57 C 247.546 1344.05 244.764 1296.59 244.788 1285.6 C 250.439 1285.48 254.587 1285.2 260.206 1284.59 z"/>
<path transform="translate(0,0)" fill="rgb(1,61,104)" d="M 1154.6 1285.22 C 1161.93 1284.34 1172.75 1285.85 1179.06 1289.53 C 1194.13 1298.32 1181.35 1305.69 1173.86 1310.3 C 1165.58 1303.99 1158.39 1298.17 1148.75 1307.28 C 1147.06 1308.87 1147.27 1308.99 1147.37 1311.12 C 1157.04 1323.94 1182.8 1313.67 1190.16 1345.02 C 1185.83 1362.94 1179.54 1368.5 1161.24 1371.71 C 1152.03 1372.5 1128.56 1366.46 1129.74 1355.02 C 1132.26 1351.22 1137.7 1347.61 1141.49 1344.76 C 1145.57 1348.5 1153.36 1354.13 1159.01 1354.25 C 1163.81 1354.35 1170.15 1349.43 1170.22 1344.26 C 1164.59 1335.33 1131.87 1336.01 1129.4 1316.26 C 1127.15 1298.26 1137.6 1287.99 1154.6 1285.22 z"/>
<path transform="translate(0,0)" fill="rgb(1,61,104)" d="M 192.603 1352.97 C 178.719 1373.42 152.901 1381.02 134.48 1359.48 C 125.557 1349.04 130.088 1331.57 128.85 1319 C 125.512 1285.12 168.445 1273.33 187.483 1297.95 C 189.34 1300.33 188.472 1303.07 187.576 1305.71 C 182.567 1311.12 178.153 1311.56 172.061 1308.3 C 144.806 1289.65 144.517 1324.75 147.535 1341.91 C 149.305 1351.98 157.459 1357.07 166.762 1351.58 C 170.061 1349.85 173.262 1347.26 176.28 1345.01 L 192.603 1352.97 z"/>
<path transform="translate(0,0)" fill="rgb(1,61,104)" d="M 742.446 1284.44 C 753.013 1285.25 772.717 1289.61 775.238 1301.68 C 774.202 1305.45 774.977 1304.04 771.518 1306.96 C 768.788 1308.32 764.338 1310.68 761.674 1311.74 C 734.209 1288.27 729.133 1317.52 732.268 1338.97 C 733.979 1350.68 735.135 1351.43 745.937 1354.35 C 752.311 1351.89 757.11 1349.61 762.303 1345.02 C 767.606 1347.8 773.216 1350.16 777.074 1354.68 L 775.518 1357.55 C 753.54 1382.01 713.862 1374.91 714.505 1339.53 C 715.046 1309.79 709.066 1294.54 742.446 1284.44 z"/>
<path transform="translate(0,0)" fill="rgb(1,61,104)" d="M 973.552 1289.43 C 984.268 1284.87 991.771 1282.01 1002.89 1287.16 C 1009.42 1290.19 1020.8 1294.63 1020.21 1303.18 C 1017.96 1307.12 1010.53 1309.96 1006.17 1312.1 C 986.742 1293.9 976.67 1304.91 976.617 1326.91 C 976.567 1347.96 980.597 1362.58 1004.03 1347.77 C 1007.93 1345.24 1011.48 1347.19 1015.24 1349.5 C 1018.79 1351.22 1019.3 1350.73 1020.96 1353.76 C 1020.16 1361.06 1010.19 1367.1 1004.15 1370.37 C 993.085 1372.84 989.407 1371.88 978.441 1370.07 C 974.945 1367.52 969.418 1365.1 966.23 1361.66 C 957.031 1351.72 958.967 1328.42 959.306 1315.33 C 959.681 1300.87 963.921 1297.91 973.552 1289.43 z"/>
<path transform="translate(0,0)" fill="rgb(1,61,104)" d="M 334.75 1285.42 C 351.216 1285.11 368.664 1286.13 384.986 1284.83 C 385.317 1291.57 385.343 1299.03 385.507 1305.84 C 379.604 1305.07 368.273 1305.06 361.966 1304.91 C 362.424 1322.75 362.169 1341.81 362.25 1359.75 C 362.18 1365.2 363.052 1366.3 360.63 1370.33 C 357.144 1372.55 348.507 1371.98 343.722 1372.18 C 342.402 1351.14 342.94 1326.25 343.196 1305.01 C 335.549 1305.26 327.898 1305.39 320.246 1305.39 C 319.903 1298.99 320.207 1292.02 320.348 1285.57 C 325.454 1285.82 329.632 1285.64 334.75 1285.42 z"/>
<path transform="translate(0,0)" fill="rgb(1,61,104)" d="M 284.983 1285.55 C 288.679 1284.99 290.86 1284.1 293.646 1286.59 C 295.291 1300.84 294.296 1336.27 294.089 1352.31 C 305.85 1351.65 318.683 1351.92 330.524 1352.06 C 330.196 1358.23 331.747 1366.45 328.375 1370.73 C 325.343 1372.63 322.042 1371.79 318.246 1371.46 C 306.082 1371.34 288.039 1370.65 276.377 1371.85 C 275.953 1360.64 274.679 1294.06 277.15 1287.24 C 280.016 1285.24 281.036 1285.82 284.983 1285.55 z"/>
<path transform="translate(0,0)" fill="rgb(1,61,104)" d="M 1029.39 1285.41 C 1036.15 1285.57 1039.6 1285.23 1046.25 1284.45 C 1048.8 1305.79 1046.45 1347.41 1047.58 1371.83 C 1039.99 1371.29 1037.2 1371.18 1029.46 1371.92 L 1028.89 1356.96 L 1028.85 1348.95 C 1028.48 1332.34 1027.99 1301.53 1029.39 1285.41 z"/>
<path transform="translate(0,0)" fill="rgb(1,61,104)" d="M 785.245 1285.28 C 790.434 1285.45 797.057 1284.95 802.352 1284.71 C 802.076 1295.87 803.766 1367.85 800.711 1371.76 C 793.96 1371.23 791.426 1371.45 784.622 1372.17 C 783.645 1361.07 783.418 1294.6 785.245 1285.28 z"/>
<path transform="translate(0,0)" fill="rgb(1,61,104)" d="M 1142.3 1378.6 C 1143.36 1378.46 1143.16 1378.66 1144.45 1379.23 C 1144.66 1382.86 1140.36 1387.3 1138.27 1390.24 C 1121.38 1413.97 1121.48 1411.94 1093.83 1412 L 1092.02 1411.39 C 1091.63 1406.51 1106.69 1383.98 1110.11 1378.79 C 1120.76 1378.89 1131.68 1379.13 1142.3 1378.6 z"/>
<path transform="translate(0,0)" fill="rgb(1,61,104)" fill-opacity="0.0627451" d="M 432.423 1501.8 C 431.093 1496.12 429.707 1490.21 428.716 1484.47 C 431.667 1490.93 434.435 1496.92 436.981 1503.57 L 432.423 1501.8 z"/>
<path transform="translate(0,0)" fill="rgb(15,72,129)" fill-opacity="0.0392157" d="M 476.996 1503.55 L 480.197 1501.57 L 483.144 1516.43 C 480.634 1511.93 478.517 1508.51 476.996 1503.55 z"/>
<path transform="translate(0,0)" fill="rgb(185,8,18)" d="M 63.4841 0 L 1280 0 L 1280 103.146 L 101.037 103.124 C 103.091 121.171 101.886 166.116 101.882 186.564 L 101.826 348.8 L 101.854 512.103 C 101.86 532.321 103.022 576.947 101.173 594.566 C 145.487 594.066 583.463 591.504 594.312 595.798 C 595.763 604.06 594.845 618.274 595.002 627.203 C 595.401 649.875 594.136 673.948 594.99 696.536 C 557.853 694.551 506.938 696.065 469 696.08 L 232.164 696.117 C 202.965 696.193 173.765 696.12 144.565 695.899 C 133.451 695.791 111.77 696.113 101.227 694.821 C 102.558 707.045 101.934 727.302 101.924 740.197 L 101.855 820.445 L 101.935 1058.53 L 101.887 1146.23 C 101.896 1158.63 101.302 1176.14 101.922 1188.01 C 87.3387 1186.71 7.27478 1188.84 0 1186.42 L 0 12.1625 C 16.804 8.08942 43.0465 5.80329 60.761 2.45818 C 61.8363 1.48752 62.744 0.668128 63.4841 0 z"/>
<path transform="translate(0,0)" fill="rgb(185,8,18)" d="M 1280 200.115 L 1280 300.927 C 1206.42 302.367 1128.36 301.043 1054.4 301.045 L 625.134 301.107 L 401.678 301.139 L 333.604 301.141 C 323.97 301.142 307.224 301.716 298.44 300.771 C 299.297 329.67 299.568 369.389 298.163 397.954 C 338.431 396.391 384.37 397.241 425.029 397.233 L 646.583 397.412 L 1280 397.099 L 1280 497.54 C 1251.74 498.173 1221.68 497.67 1193.32 497.662 L 1034.04 497.634 L 585.048 497.805 L 342.533 497.555 C 294.809 497.555 245.614 496.946 197.992 497.888 C 198.654 489.219 198.18 474.762 198.166 465.762 L 198.073 405.363 C 197.72 336.954 197.853 268.543 198.471 200.136 C 210.759 201.059 231.609 200.416 244.369 200.417 L 332.413 200.424 L 604.872 200.474 L 1046.77 200.322 C 1122.91 200.313 1204.29 201.957 1280 200.115 z"/>
<path transform="translate(0,0)" fill="rgb(185,8,18)" d="M 690.107 595.028 C 708.101 593.102 739.009 594.278 757.496 594.324 L 878.686 594.328 L 1280 594.198 L 1280 696.223 L 963.08 696.081 L 852.421 696.056 C 833.417 696.057 809.557 696.7 791.09 695.711 C 792.298 727.055 791.411 761.197 791.013 792.752 C 807.129 791.378 831.666 792.111 848.48 792.111 L 949.173 792.131 L 1280 792.054 L 1280 892.975 L 852.481 892.9 C 831.587 892.909 810.532 892.788 789.651 893.021 C 776.936 893.163 763.823 894.83 750.944 894.72 L 381.242 892.924 C 321.315 892.933 258.041 891.932 198.418 893.593 C 197.483 881.058 192.721 857.175 193.525 846.967 C 195.302 824.403 199.261 816.415 198.281 792.241 L 514.411 792.111 C 572.413 792.119 633.485 791.123 691.242 792.445 C 689.145 773.276 690.161 740.05 690.164 719.913 L 690.107 595.028 z"/>
<path transform="translate(0,0)" fill="rgb(185,8,18)" d="M 199.038 988.367 C 218.352 989.493 245.099 988.738 264.797 988.752 L 389.092 988.779 L 771.997 988.444 L 1115.19 988.79 L 1219.83 988.792 C 1237.83 988.786 1262.42 989.396 1280 988.183 L 1280 1089.29 C 1237.5 1090.17 1192.82 1089.46 1150.22 1089.37 L 958.156 1089.38 L 845.023 1089.31 C 830.81 1089.29 804.012 1090.27 790.822 1088.93 C 791.898 1122.05 791.265 1155.17 791.677 1188.29 C 775.254 1185.6 707.533 1186.5 690.499 1188.48 L 690.106 1126.69 C 690.052 1116.49 689.403 1098.55 691.011 1089.18 C 676.686 1090 655.289 1089.36 640.501 1089.39 L 541.801 1089.49 C 427.97 1089.49 311.979 1088.31 198.361 1089.79 C 197.839 1055.98 198.065 1022.16 199.038 988.367 z"/>
<path transform="translate(0,0)" fill="rgb(1,61,104)" d="M 1137.22 1579.55 C 1143.46 1560.63 1186.45 1428.93 1191.89 1422.29 C 1194.15 1419.53 1199.69 1419.2 1203.03 1418.98 C 1210.02 1418.52 1224.44 1417.31 1229.77 1421.95 C 1229.84 1426.1 1241.07 1454.64 1243.33 1461.69 C 1248.6 1476.65 1275.07 1557.31 1280 1563.97 L 1280 1579.56 C 1268.61 1579.12 1252.16 1578.8 1241.01 1579.62 C 1236.89 1569.4 1233.72 1558.81 1231.55 1548 C 1218.94 1548.79 1203.5 1548.32 1190.7 1548.2 C 1187.48 1556.43 1183.57 1570.83 1180.92 1579.6 C 1166.9 1580.37 1152.17 1578.57 1137.22 1579.55 z M 1208.96 1510.89 C 1212.34 1510.93 1217.01 1511.4 1219.9 1510.1 C 1219.83 1505.53 1212.54 1471.81 1210.08 1468.61 C 1208.59 1474.55 1199.64 1506.75 1201.03 1510.43 C 1204.53 1511.29 1205.33 1511.16 1208.96 1510.89 z"/>
<path transform="translate(0,0)" fill="rgb(1,61,104)" d="M 0 1420.84 C 9.99365 1419.17 20.1985 1419.33 30.2995 1419.32 C 61.617 1419.28 92.9923 1420.11 124.292 1418.81 C 124.258 1431.89 123.867 1446.94 124.487 1459.86 C 112.489 1459.07 93.1033 1459.89 83.165 1458.72 C 83.3976 1484.46 83.4501 1510.2 83.3226 1535.95 C 83.2895 1549.29 82.7517 1566.72 83.6075 1579.54 C 72.3651 1578.77 53.773 1578.63 42.5338 1579.61 C 42.0348 1546.96 40.6232 1490.53 42.8118 1459.21 C 35.1722 1459.82 6.39249 1460.84 0 1458.28 L 0 1420.84 z"/>
<path transform="translate(0,0)" fill="rgb(1,61,104)" d="M 0 1286.76 C 16.7544 1283.49 40.3683 1286.66 58.0717 1285.23 C 58.1739 1291.32 58.1376 1298.07 58.4794 1304.1 C 46.2146 1304.05 31.03 1304.43 19.0414 1303.95 C 19.1246 1309.5 19.4166 1316.35 19.0649 1321.79 C 30.4751 1321.76 41.8853 1321.87 53.2925 1322.14 C 53.4215 1328.03 53.3987 1334.88 53.881 1340.68 C 43.1528 1340.48 29.5129 1340.63 18.9967 1339.92 C 19.117 1350.27 19.487 1361.66 19.2634 1371.92 C 14.3704 1371.62 4.39491 1371.28 0 1370.22 L 0 1286.76 z"/>
<path transform="translate(0,0)" fill="rgb(1,61,104)" d="M 1280 1285.3 L 1280 1295.77 C 1276.17 1301.03 1271.92 1309.42 1268.49 1314.95 C 1254.03 1338.28 1255.01 1346.13 1254.77 1371.85 C 1247.94 1371.51 1243.97 1371.73 1237.27 1372.21 C 1237.24 1366.62 1237.38 1347.65 1236.41 1343.29 C 1231.82 1322.71 1217.73 1307.68 1209.25 1286.05 C 1215.09 1286.1 1222.41 1285.44 1228.35 1285.07 C 1235.02 1296.58 1240.72 1308.67 1246.14 1320.8 C 1251.95 1309.45 1257.14 1297.34 1263.31 1286.26 L 1280 1285.3 z"/>
</svg>